<svg version="1.0" xmlns="http://www.w3.org/2000/svg" viewBox="0 0 1260 1260">
	<path d="M0,360 c45,45 135,45 180,0c45,45 135,45 180,0c45,45 135,45 180,0c45,45 135,45 180,0c45,45 135,45 180,0c45,45 135,45 180,0c45,45 135,45 180,0l0,540 q0,90 -90,90 l-810,0 L0,1260z" />
	<g>
<rect width="1080" height="90" x="90" />
<path d="M0,90 q0,-90 90,-90 l90,0 l0,270 a90,90 0 1,1 -180,0 Z" />
<path d="M360,0 l180,0 l0,270 a90,90 0 1,1 -180,0 Z" />
<path d="M720,0 l180,0 l0,270 a90,90 0 1,1 -180,0 Z" />
<path d="M1080,0 l90,0 q90,0 90,90 l0,180 a90,90 0 1,1 -180,0 Z" />
	</g>
	<svg viewBox="0 0 1200 400" width="1060px" x="100px" y="50px" stroke="#FFF" stroke-width="60" stroke-linecap="round" fill="#FFF" fill-opacity="0">
<path d="M30,480 l0,-450m0,150a150,150 0 1,0 300,0a150,150 0 1,0 -300,0" />
<path d="M600,30	m-150,150	a150,150 0 1,0 300,0	a150,150 0 1,0 -300,0" /> 
<path d="M1170,70 c-25,-15 -75,-40 -150,-40 q-150,0 -150,75t150,75t150,75 t-150,75c-75,0 -125,-25 -150,-40"	/>
	</svg>
</svg>