<svg xmlns="http://www.w3.org/2000/svg" viewBox="0 0 1536 512">
<path d="M322 515Q390 515 442 482T526 390T557 255Q557 179 526 120T442 27T323 -7Q288 -7 257 3T199 32T153 74T121 128L139 141V-170Q139 -182 131 -191T109 -200Q96 -200 88 -191T79 -170V482Q79 495 87 504T109 513Q122 513 130 504T139 482V374L125 382Q135 413 154 437T200 479T257 506T322 515ZM317 459Q263 459 222 433T158 361T134 255Q134 196 157 149T222 76T317 49Q370 49 410 75T475 149T499 255Q499 314 475 360T411 432T317 459Z" />
<path d="M555 256Q555 180 522 120T432 25T302 -10Q231 -10 174 24T83 119T49 256Q49 333 82 393T173 488T302 523Q375 523 432 488T522 393T555 256ZM495 256Q495 317 470 364T402 439T302 467Q248 467 204 440T135 365T109 256Q109 195 134 148T204 74T302 46Q358 46 401 73T470 148T495 256Z" />
<path d="M50 81Q42 93 42 104T55 123Q63 130 73 129T93 119Q120 84 158 63T250 41Q278 41 305 50T351 79T369 129Q369 160 351 179T305 209T244 228Q210 237 178 248T122 277T82 320T67 381Q67 423 90 455T152 505T242 523Q267 523 296 517T353 495T403 454Q412 445 412 434T402 413Q394 407 384 407T366 415Q342 442 309 456T238 470Q209 470 184 461T141 432T124 382Q126 353 144 335T193 305T262 283Q294 275 323 264T375 237T411 195T425 132Q425 88 401 56T335 7T244 -10Q190 -10 140 11T50 81Z" />
</svg>