<?xml version="1.0" standalone="no"?>
<!DOCTYPE svg PUBLIC "-//W3C//DTD SVG 20010904//EN" "http://www.w3.org/TR/2001/REC-SVG-20010904/DTD/svg10.dtd">
<svg fill="#000" version="1.0" xmlns="http://www.w3.org/2000/svg" viewBox="0 0 1260 1260">
	<defs>
    <clipPath id="circle-clip">
      <circle cx="630" cy="630" r="630" />
    </clipPath>
  </defs>
	<rect fill="#323A46" width="1260" height="1260" clip-path="url(#circle-clip)" />
	<g clip-path="url(#circle-clip)">
		<g fill="#CD2C24">
			<path d="M0,0 l180,0 l0,230 a90,90 0 1,1 -180,0 Z" />
			<path d="M360,0 l180,0 l0,230 a90,90 0 1,1 -180,0 Z" />
			<path d="M720,0 l180,0 l0,230 a90,90 0 1,1 -180,0 Z" />
			<path d="M1080,0 l180,0 l0,230 a90,90 0 1,1 -180,0 Z" />
		</g>
		<g fill="#F5E5C0">
			<path d="M180,0 l180,0 l0,230 a90,90 0 1,1 -180,0 Z" />
			<path d="M540,0 l180,0 l0,230 a90,90 0 1,1 -180,0 Z" />
			<path d="M900,0 l180,0 l0,230 a90,90 0 1,1 -180,0 Z" />
		</g>
	</g>
	<svg viewBox="0 0 1200 1260" width="1060" x="100" y="400" stroke="#FFF" stroke-width="60" stroke-linecap="round"  fill="#FFF" fill-opacity="0">
		<path 
			d="
				M30,480 l0,-450
				m0,150
				a150,150 0 1,0 300,0
				a150,150 0 1,0 -300,0
			"
		/>
		<path d="
			M600,30
			m-150,150
			a150,150 0 1,0 300,0
			a150,150 0 1,0 -300,0
    " /> 
		<path d="
				M1170,70 
				c-25,-15 -75,-40 -150,-40 
				q-150,0 -150,75
				t150,75
				t150,75 
				t-150,75
				c-75,0 -125,-25 -150,-40
			" 
			/>
	</svg>
</svg>